<svg width="21" height="20" viewBox="0 0 21 20" fill="none" xmlns="http://www.w3.org/2000/svg">
<path d="M10.4835 4.52393C10.8613 4.52393 11.168 4.83059 11.168 5.20845V9.31559H15.2751C15.653 9.31559 15.9596 9.62226 15.9596 10.0001C15.9596 10.378 15.653 10.6846 15.2751 10.6846H11.168V14.7918C11.168 15.1683 10.8613 15.4763 10.4835 15.4763C10.1056 15.4763 9.79893 15.1683 9.79893 14.7918V10.6846H5.69179C5.31393 10.6846 5.00726 10.378 5.00726 10.0001C5.00726 9.62226 5.31393 9.31559 5.69179 9.31559H9.79893V5.20845C9.79893 4.83059 10.1056 4.52393 10.4835 4.52393Z" fill="black" fill-opacity="0.5"/>
<path fill-rule="evenodd" clip-rule="evenodd" d="M10.4833 0.416748C5.19056 0.416748 0.899963 4.70734 0.899963 10.0001C0.899963 15.2915 5.19056 19.5834 10.4833 19.5834C15.776 19.5834 20.0666 15.2915 20.0666 10.0001C20.0666 4.70734 15.776 0.416748 10.4833 0.416748ZM2.26901 10.0001C2.26901 5.46374 5.94696 1.7858 10.4833 1.7858C15.0196 1.7858 18.6976 5.46374 18.6976 10.0001C18.6976 14.5385 15.0196 18.2144 10.4833 18.2144C5.94696 18.2144 2.26901 14.5385 2.26901 10.0001Z" fill="black" fill-opacity="0.5"/>
</svg>
