<svg width="12" height="12" viewBox="0 0 12 12" fill="none" xmlns="http://www.w3.org/2000/svg">
<g clip-path="url(#clip0_22_453)">
<path d="M9.08572 3.35145V2.65545C9.08596 2.64327 9.08884 2.63129 9.09417 2.62034C9.0995 2.60939 9.10715 2.59972 9.11658 2.59202L9.57429 2.24916L9.78515 2.52345C9.81294 2.55929 9.8538 2.58267 9.89878 2.58845C9.94376 2.59423 9.9892 2.58196 10.0252 2.55431L11.6212 1.33202C11.7419 1.23473 11.8292 1.10206 11.8707 0.952627C11.9122 0.803198 11.9059 0.644521 11.8526 0.498878C11.8109 0.405829 11.7489 0.323258 11.6712 0.25718C11.5936 0.191101 11.5021 0.143179 11.4036 0.116903C11.305 0.0906274 11.2019 0.0866597 11.1016 0.105289C11.0014 0.123918 10.9065 0.164676 10.824 0.224593L9.16972 1.44002C9.15147 1.45354 9.13608 1.47055 9.12446 1.49007C9.11284 1.50959 9.10521 1.53122 9.10202 1.55371C9.09883 1.5762 9.10014 1.5991 9.10588 1.62107C9.11162 1.64305 9.12166 1.66367 9.13544 1.68174L9.35829 1.96974L8.90229 2.31259C8.84877 2.35223 8.80535 2.40394 8.77556 2.46351C8.74577 2.52308 8.73046 2.58885 8.73087 2.65545V3.35145C8.7309 3.36284 8.72846 3.3741 8.72373 3.38446C8.71899 3.39481 8.71207 3.40402 8.70344 3.41145L8.40001 3.63431L7.51887 2.46002C7.4523 2.37254 7.35944 2.30869 7.25393 2.27784C7.14842 2.24698 7.03579 2.25075 6.93258 2.28859C6.80814 2.33673 6.70567 2.42883 6.64458 2.54745L5.08287 5.39659H0.267437C0.221971 5.39659 0.178368 5.41465 0.146219 5.4468C0.114069 5.47895 0.0960083 5.52256 0.0960083 5.56802V7.62516C0.0960083 7.67063 0.114069 7.71423 0.146219 7.74638C0.178368 7.77853 0.221971 7.79659 0.267437 7.79659H1.71429V9.51088H0.267437C0.221971 9.51088 0.178368 9.52894 0.146219 9.56109C0.114069 9.59324 0.0960083 9.63684 0.0960083 9.68231V11.7394C0.0960083 11.7849 0.114069 11.8285 0.146219 11.8607C0.178368 11.8928 0.221971 11.9109 0.267437 11.9109H9.99601C10.0415 11.9109 10.0851 11.8928 10.1172 11.8607C10.1494 11.8285 10.1674 11.7849 10.1674 11.7394V9.85373H11.6177C11.6632 9.85373 11.7068 9.83567 11.7389 9.80352C11.7711 9.77138 11.7892 9.72777 11.7892 9.68231V7.62516C11.7892 7.5797 11.7711 7.53609 11.7389 7.50394C11.7068 7.4718 11.6632 7.45373 11.6177 7.45373H10.1709V5.56802C10.1709 5.52256 10.1528 5.47895 10.1207 5.4468C10.0885 5.41465 10.0449 5.39659 9.99944 5.39659H9.44229C9.47632 5.32858 9.49065 5.25241 9.48369 5.17668C9.47672 5.10096 9.44872 5.02868 9.40287 4.96802L8.60744 3.91031L8.91429 3.68574C8.96666 3.64696 9.00938 3.59663 9.03911 3.53865C9.06884 3.48066 9.0848 3.4166 9.08572 3.35145ZM11.0194 0.49545C11.0615 0.46583 11.1096 0.446045 11.1603 0.437558C11.2111 0.429072 11.263 0.432102 11.3124 0.446424C11.3618 0.460746 11.4073 0.485993 11.4456 0.520296C11.484 0.5546 11.5141 0.59708 11.5337 0.644593C11.5562 0.716622 11.5564 0.793748 11.5344 0.865915C11.5124 0.938082 11.4691 1.00194 11.4103 1.04916L9.94287 2.17202L9.51601 1.61145L11.0194 0.49545ZM4.74515 6.47659C4.78776 6.56115 4.85288 6.6323 4.93334 6.68221C5.0138 6.73212 5.10647 6.75885 5.20115 6.75945C5.24805 6.75909 5.29471 6.75275 5.34001 6.74059L6.58287 6.39773V7.44516H3.68229V5.73088H4.89258L4.76058 5.97088C4.71558 6.04703 4.69056 6.13333 4.68787 6.22175C4.68517 6.31017 4.70487 6.39783 4.74515 6.47659ZM5.30401 9.51259V7.79831H8.20458V9.51259H5.30401ZM6.58287 9.85545V11.5697H3.68229V9.85545H6.58287ZM0.438865 5.74116H3.33944V7.45545H0.437151V5.74116H0.438865ZM2.06058 7.79831H4.96115V9.51259H2.05715V7.79831H2.06058ZM0.438865 9.85545H3.33944V11.5697H0.437151V9.85545H0.438865ZM9.82458 11.5697H6.92572V9.85545H9.82629V11.5697H9.82458ZM11.448 9.51259H8.54744V7.79831H11.448V9.51259ZM9.82629 7.45545H6.92744V6.31202L9.03772 5.74116H9.82801V7.45545H9.82629ZM9.08572 5.12574C9.10278 5.14815 9.11404 5.17443 9.11853 5.20223C9.12301 5.23004 9.12058 5.25852 9.11144 5.28516C9.10224 5.31175 9.08664 5.33567 9.06601 5.35481C9.04538 5.37394 9.02036 5.3877 8.99315 5.39488L5.24915 6.40973C5.21783 6.41679 5.18515 6.41491 5.15484 6.4043C5.12453 6.39369 5.09781 6.37479 5.07772 6.34973C5.05701 6.32363 5.04436 6.29205 5.04132 6.25886C5.03827 6.22567 5.04497 6.19232 5.06058 6.16288L6.96344 2.68631C6.97721 2.66097 6.99716 2.63951 7.02143 2.62393C7.04571 2.60835 7.07352 2.59914 7.10229 2.59716C7.13091 2.59521 7.15955 2.60046 7.18561 2.61244C7.21166 2.62442 7.2343 2.64274 7.25144 2.66574L8.13087 3.83488L7.11772 4.57202C7.0809 4.59885 7.05623 4.6392 7.04916 4.68421C7.04209 4.72922 7.05318 4.77519 7.08001 4.81202C7.10683 4.84885 7.14719 4.87351 7.1922 4.88058C7.23721 4.88766 7.28318 4.87656 7.32001 4.84974L8.32972 4.11431L9.08572 5.12574Z" fill="black" fill-opacity="0.5"/>
</g>
<defs>
<clipPath id="clip0_22_453">
<rect width="12" height="12" fill="white"/>
</clipPath>
</defs>
</svg>
