<svg width="30" height="30" viewBox="0 0 30 30" fill="none" xmlns="http://www.w3.org/2000/svg">
<path d="M29.0313 7.45877H8.07397" stroke="currentColor" stroke-width="1.41667" stroke-miterlimit="10" stroke-linecap="round" stroke-linejoin="round"/>
<path d="M21.4355 21.5103H27.2153C28.2508 21.5103 29.0903 20.6709 29.0903 19.6353V3.83405C29.0903 2.79851 28.2508 1.95905 27.2153 1.95905H9.89093C8.8554 1.95905 8.01593 2.79851 8.01593 3.83405V14.2991" stroke="currentColor" stroke-width="1.41667" stroke-miterlimit="10" stroke-linecap="round" stroke-linejoin="round"/>
<path d="M11.5386 2.91298V0.877838" stroke="currentColor" stroke-width="1.41667" stroke-miterlimit="10" stroke-linecap="round" stroke-linejoin="round"/>
<path d="M15.0482 2.91298V0.877838" stroke="currentColor" stroke-width="1.41667" stroke-miterlimit="10" stroke-linecap="round" stroke-linejoin="round"/>
<path d="M18.5593 2.91298V0.877838" stroke="currentColor" stroke-width="1.41667" stroke-miterlimit="10" stroke-linecap="round" stroke-linejoin="round"/>
<path d="M25.5804 2.91298V0.877838" stroke="currentColor" stroke-width="1.41667" stroke-miterlimit="10" stroke-linecap="round" stroke-linejoin="round"/>
<path d="M22.0698 2.91298V0.877838" stroke="currentColor" stroke-width="1.41667" stroke-miterlimit="10" stroke-linecap="round" stroke-linejoin="round"/>
<path d="M9.66406 22.6303L21.3778 26.0455V10.9426L9.66406 14.3578V22.6303Z" stroke="currentColor" stroke-width="1.41667" stroke-miterlimit="10" stroke-linecap="round" stroke-linejoin="round"/>
<path d="M5.63373 22.6306V29.1228H9.66346V22.6306" stroke="currentColor" stroke-width="1.41667" stroke-miterlimit="10" stroke-linecap="round" stroke-linejoin="round"/>
<path d="M9.66346 14.3575H5.63373V22.63H9.66346" stroke="currentColor" stroke-width="1.41667" stroke-miterlimit="10" stroke-linecap="round" stroke-linejoin="round"/>
<path d="M5.63367 22.6301H5.04705C2.76266 22.6301 0.910828 20.7783 0.910828 18.4939C0.910828 16.2095 2.76272 14.3577 5.04705 14.3577H5.63367" stroke="currentColor" stroke-width="1.41667" stroke-miterlimit="10" stroke-linecap="round" stroke-linejoin="round"/>
</svg>
