<svg width="24" height="24" viewBox="0 0 24 24" fill="none" xmlns="http://www.w3.org/2000/svg">
<g clip-path="url(#clip0_22_36)">
<path fill-rule="evenodd" clip-rule="evenodd" d="M0.857204 18.8571L10.3544 18.8571C10.7658 21.2914 12.8829 23.1428 15.4286 23.1428C17.9743 23.1428 20.0914 21.2914 20.5029 18.8571L23.1429 18.8571C23.6143 18.8571 24.0001 18.4714 24.0001 18C24.0001 17.5285 23.6143 17.1428 23.1429 17.1428L20.5029 17.1428C20.0914 14.7085 17.9743 12.8571 15.4286 12.8571C12.8829 12.8571 10.7658 14.7085 10.3544 17.1428L0.857204 17.1428C0.385775 17.1428 6.07897e-05 17.5285 6.08104e-05 18C6.0831e-05 18.4714 0.385775 18.8571 0.857204 18.8571ZM12.0001 18C12.0001 19.8943 13.5343 21.4285 15.4286 21.4285C17.3229 21.4285 18.8572 19.8943 18.8572 18C18.8572 16.1057 17.3229 14.5714 15.4286 14.5714C13.5343 14.5714 12.0001 16.1057 12.0001 18Z" fill="currentColor"/>
<path fill-rule="evenodd" clip-rule="evenodd" d="M13.6457 5.14282C13.2343 2.70854 11.1172 0.857108 8.57149 0.857108C6.02577 0.857108 3.9087 2.70854 3.49727 5.14282L0.857204 5.14282C0.385775 5.14282 6.07897e-05 5.52854 6.08104e-05 5.99997C6.0831e-05 6.47139 0.385775 6.85711 0.857204 6.85711L3.49727 6.85711C3.9087 9.29139 6.02578 11.1428 8.57149 11.1428C11.1172 11.1428 13.2343 9.29139 13.6457 6.85711L23.1429 6.85711C23.6143 6.85711 24.0001 6.47139 24.0001 5.99996C24.0001 5.52854 23.6143 5.14282 23.1429 5.14282L13.6457 5.14282ZM8.57149 9.42854C6.6772 9.42854 5.14292 7.89425 5.14292 5.99996C5.14292 4.10568 6.6772 2.57139 8.57149 2.57139C10.4658 2.57139 12.0001 4.10568 12.0001 5.99996C12.0001 7.89425 10.4658 9.42854 8.57149 9.42854Z" fill="currentColor"/>
</g>
<defs>
<clipPath id="clip0_22_36">
<rect width="24" height="24" fill="white"/>
</clipPath>
</defs>
</svg>
