<svg width="20" height="20" viewBox="0 0 20 20" fill="none" xmlns="http://www.w3.org/2000/svg">
<path d="M9.99993 5.0001C8.80707 5.0001 7.85707 5.95014 7.85707 7.093C7.85707 7.48586 7.53564 7.80729 7.14278 7.80729C6.74993 7.80729 6.4285 7.48586 6.4285 7.093C6.4285 5.13586 8.04278 3.57153 9.99993 3.57153C11.9571 3.57153 13.5714 5.13586 13.5714 7.093C13.5714 8.06443 13.1714 8.94299 12.5285 9.5787C12.4214 9.68584 12.3214 9.78579 12.2143 9.87864C11.8571 10.2286 11.5213 10.5573 11.2428 10.9073C10.8928 11.3573 10.7142 11.7501 10.7142 12.143C10.7142 12.5358 10.3928 12.8572 9.99993 12.8572C9.60707 12.8572 9.28564 12.5358 9.28564 12.143C9.28564 11.293 9.67844 10.5858 10.1213 10.0287C10.4642 9.58585 10.8928 9.17151 11.2642 8.81437C11.3571 8.72865 11.4427 8.64295 11.5213 8.56438C11.907 8.18581 12.1428 7.66443 12.1428 7.093C12.1428 5.95014 11.1928 5.0001 9.99993 5.0001Z" fill="black" fill-opacity="0.5"/>
<path d="M9.28564 15.3571C9.28564 15.7499 9.60707 16.0714 9.99993 16.0714C10.3928 16.0714 10.7142 15.7499 10.7142 15.3571V14.9999C10.7142 14.6071 10.3928 14.2856 9.99993 14.2856C9.60707 14.2856 9.28564 14.6071 9.28564 14.9999V15.3571Z" fill="black" fill-opacity="0.5"/>
<path fill-rule="evenodd" clip-rule="evenodd" d="M18.9571 4.37143C19.6214 5.04285 19.9999 5.95002 19.9999 6.90002V13.1C19.9999 14.05 19.6214 14.9571 18.9571 15.6286L15.6284 18.9572C14.957 19.6215 14.05 20 13.1 20H6.89988C5.94988 20 5.04288 19.6215 4.37145 18.9572L1.04277 15.6286C0.378482 14.9571 -6.10352e-05 14.05 -6.10352e-05 13.1V6.90002C-6.10352e-05 5.95002 0.378482 5.04285 1.04277 4.37143L4.37145 1.04283C5.04288 0.378544 5.94988 0 6.89988 0H13.1C14.05 0 14.957 0.378544 15.6284 1.04283L18.9571 4.37143ZM18.5714 6.90002C18.5714 6.3286 18.3429 5.78574 17.9429 5.38574L14.6142 2.05715C14.2142 1.65715 13.6714 1.42857 13.1 1.42857H6.89988C6.32845 1.42857 5.78568 1.65715 5.38568 2.05715L2.057 5.38574C1.657 5.78574 1.42851 6.3286 1.42851 6.90002V13.1C1.42851 13.6714 1.657 14.2143 2.057 14.6143L5.38568 17.9429C5.78568 18.3429 6.32845 18.5714 6.89988 18.5714H13.1C13.6714 18.5714 14.2142 18.3429 14.6142 17.9429L17.9429 14.6143C18.3429 14.2143 18.5714 13.6714 18.5714 13.1V6.90002Z" fill="black" fill-opacity="0.5"/>
</svg>
