<svg width="20" height="20" viewBox="0 0 20 20" fill="none" xmlns="http://www.w3.org/2000/svg">
<path fill-rule="evenodd" clip-rule="evenodd" d="M7.38537 1.1461C8.79332 -0.382032 11.2068 -0.382032 12.6147 1.1461L19.0145 8.09201C19.6196 8.74835 19.9553 9.60876 19.9553 10.5012V17.846C19.9553 19.0243 19.0003 19.9793 17.822 19.9793H2.17807C0.999792 19.9793 0.0447998 19.0243 0.0447998 17.846V10.5012C0.0447998 9.60876 0.380432 8.74835 0.985569 8.09201L7.38537 1.1461ZM7.86677 18.5571H12.1333V12.1573H7.86677V18.5571ZM6.4446 18.5571H2.17807C1.78554 18.5571 1.46698 18.2385 1.46698 17.846V10.5012C1.46698 9.96573 1.66822 9.44947 2.03159 9.05552L8.43138 2.10961C9.27616 1.19301 10.7239 1.19301 11.5687 2.10961L17.9685 9.05552C18.3319 9.44947 18.5331 9.96573 18.5331 10.5012V17.846C18.5331 18.2385 18.2145 18.5571 17.822 18.5571H13.5555V12.1573C13.5555 11.3715 12.9191 10.7351 12.1333 10.7351H7.86677C7.08102 10.7351 6.4446 11.3715 6.4446 12.1573V18.5571Z" fill="black" fill-opacity="0.5"/>
</svg>
