<svg width="24" height="32" viewBox="0 0 24 32" fill="none" xmlns="http://www.w3.org/2000/svg">
<g clip-path="url(#clip0_5_139)">
<mask id="mask0_5_139" style="mask-type:luminance" maskUnits="userSpaceOnUse" x="0" y="0" width="24" height="32">
<path d="M24 0.615479H0V31.3847H24V0.615479Z" fill="white"/>
</mask>
<g mask="url(#mask0_5_139)">
<path d="M20 0.746563C19.6038 0.869949 18.4915 1.88788 15.7028 4.71032L11.939 8.48902L11.2838 7.88749C10.9181 7.54816 9.36383 5.97502 7.80955 4.38643C4.92952 1.42518 4.21333 0.885371 3.22286 0.885371C2.50667 0.900795 1.51619 1.37891 1.15048 1.9033C0.586668 2.70531 0.495239 3.44562 0.495239 7.27056V10.9567L2.65905 13.1776C3.84762 14.3961 4.88381 15.3832 4.94476 15.3832C5.00571 15.3832 5.06667 13.7792 5.06667 11.8359C5.06667 9.87709 5.11238 8.28847 5.18858 8.28847C5.24952 8.28847 6.7581 9.78453 8.55619 11.6045C11.1162 14.1955 11.8781 14.8742 12.0609 14.7663C12.1981 14.6891 13.7371 13.1622 15.5047 11.3885C17.2571 9.59949 18.7505 8.13425 18.8115 8.13425C18.8724 8.13425 18.9486 9.73825 18.9638 11.6816L19.0095 15.2443L21.2495 12.9926L23.4743 10.7253L23.4895 7.03924C23.5047 4.83371 23.459 3.10631 23.3524 2.75158C22.9562 1.24011 21.4171 0.330137 20 0.746563Z" fill="#31AFF5"/>
<path d="M17.5924 19.2852L11.9238 25.0226L6.31619 19.3469C3.2381 16.2314 0.662858 13.6866 0.601906 13.6866C0.540953 13.6866 0.495239 15.0901 0.495239 16.8175L0.510477 19.9638L6.19429 25.7013L11.8628 31.4387L17.6838 25.5316L23.5047 19.6245V16.6633C23.5047 15.0438 23.4438 13.6712 23.3828 13.6249C23.3067 13.5787 20.7009 16.1389 17.5924 19.2852Z" fill="#31AFF5"/>
</g>
</g>
<defs>
<clipPath id="clip0_5_139">
<rect width="24" height="30.7692" fill="white" transform="translate(0 0.615479)"/>
</clipPath>
</defs>
</svg>
