<svg width="22" height="22" viewBox="0 0 22 22" fill="none" xmlns="http://www.w3.org/2000/svg">
<path fill-rule="evenodd" clip-rule="evenodd" d="M1.45492 12.5641C0.0692567 6.09772 4.99874 0 11.612 0C17.3489 0 21.9996 4.6507 21.9996 10.3876C21.9996 17.0008 15.9019 21.9303 9.43545 20.5447L7.43813 20.1167C7.18855 20.0632 6.9292 20.0776 6.68705 20.1583L3.71485 21.149C1.94464 21.7391 0.260514 20.055 0.850586 18.2847L1.84132 15.3125C1.92203 15.0704 1.9364 14.811 1.88292 14.5615L1.45492 12.5641ZM11.612 2C6.27203 2 2.29165 6.92368 3.41052 12.1451L3.83852 14.1424C3.96688 14.7414 3.9324 15.3638 3.73868 15.945L2.74795 18.9172C2.67905 19.1239 2.8757 19.3205 3.0824 19.2516L6.0546 18.2609C6.63575 18.0672 7.25819 18.0327 7.85719 18.1611L9.85451 18.5891C15.0759 19.7079 19.9996 15.7276 19.9996 10.3876C19.9996 5.75527 16.2443 2 11.612 2Z" fill="black" fill-opacity="0.4"/>
</svg>
