<svg width="24" height="24" viewBox="0 0 24 24" fill="none" xmlns="http://www.w3.org/2000/svg">
<path fill-rule="evenodd" clip-rule="evenodd" d="M13.9801 2.28318C13.9932 2.19067 13.9999 2.09613 13.9999 2C13.9999 0.895431 13.1045 0 11.9999 0C10.8954 0 9.99995 0.895431 9.99995 2C9.99995 2.09613 10.0067 2.19067 10.0198 2.28318C7.53594 3.01069 5.58663 5.07554 5.08205 7.72458L4.06105 13.0848C4.05506 13.1163 4.04339 13.1464 4.0266 13.1736L2.0241 16.4277C0.794064 18.4265 2.23211 21 4.57908 21H8.99995C8.99995 22.6569 10.3431 24 11.9999 24C13.6568 24 14.9999 22.6569 14.9999 21H19.4208C21.7678 21 23.2058 18.4265 21.9758 16.4277L19.9733 13.1736C19.9565 13.1464 19.9448 13.1163 19.9388 13.0848L18.9178 7.72458C18.4133 5.07554 16.464 3.01069 13.9801 2.28318ZM11.9999 4C9.57899 4 7.49972 5.7206 7.04673 8.0988L6.02573 13.459C5.97428 13.7292 5.87404 13.9876 5.72992 14.2218L3.72742 17.4759C3.31741 18.1422 3.79676 19 4.57908 19H19.4208C20.2031 19 20.6825 18.1422 20.2725 17.4759L18.27 14.2218C18.1259 13.9876 18.0256 13.7292 17.9742 13.459L16.9532 8.0988C16.5002 5.7206 14.4209 4 11.9999 4ZM11.9999 22C12.5522 22 12.9999 21.5523 12.9999 21H10.9999C10.9999 21.5523 11.4477 22 11.9999 22Z" fill="black"/>
</svg>
