<svg width="20" height="20" viewBox="0 0 20 20" fill="none" xmlns="http://www.w3.org/2000/svg">
<path fill-rule="evenodd" clip-rule="evenodd" d="M6.10352e-05 2.14286C6.10352e-05 0.957143 0.957204 0 2.14292 0H17.8572C19.0429 0 20.0001 0.957143 20.0001 2.14286V2.85714C20.0001 4.04286 19.0429 5 17.8572 5H2.14292C0.957204 5 6.10352e-05 4.04286 6.10352e-05 2.85714V2.14286ZM2.14292 1.42857C1.75006 1.42857 1.42863 1.75 1.42863 2.14286V2.85714C1.42863 3.25 1.75006 3.57143 2.14292 3.57143H17.8572C18.2501 3.57143 18.5715 3.25 18.5715 2.85714V2.14286C18.5715 1.75 18.2501 1.42857 17.8572 1.42857H2.14292Z" fill="black" fill-opacity="0.5"/>
<path fill-rule="evenodd" clip-rule="evenodd" d="M6.10352e-05 8.57132C6.10352e-05 7.38561 0.957204 6.42847 2.14292 6.42847H17.8572C19.0429 6.42847 20.0001 7.38561 20.0001 8.57132V11.4285C20.0001 12.6142 19.0429 13.5713 17.8572 13.5713H2.14292C0.957204 13.5713 6.10352e-05 12.6142 6.10352e-05 11.4285V8.57132ZM2.14292 7.85704C1.75006 7.85704 1.42863 8.17847 1.42863 8.57132V11.4285C1.42863 11.8213 1.75006 12.1428 2.14292 12.1428H17.8572C18.2501 12.1428 18.5715 11.8213 18.5715 11.4285V8.57132C18.5715 8.17847 18.2501 7.85704 17.8572 7.85704H2.14292Z" fill="black" fill-opacity="0.5"/>
<path fill-rule="evenodd" clip-rule="evenodd" d="M2.14292 15C0.957204 15 6.10352e-05 15.9571 6.10352e-05 17.1429V17.8571C6.10352e-05 19.0429 0.957204 20 2.14292 20H17.8572C19.0429 20 20.0001 19.0429 20.0001 17.8571V17.1429C20.0001 15.9571 19.0429 15 17.8572 15H2.14292ZM1.42863 17.1429C1.42863 16.75 1.75006 16.4286 2.14292 16.4286H17.8572C18.2501 16.4286 18.5715 16.75 18.5715 17.1429V17.8571C18.5715 18.25 18.2501 18.5714 17.8572 18.5714H2.14292C1.75006 18.5714 1.42863 18.25 1.42863 17.8571V17.1429Z" fill="black" fill-opacity="0.5"/>
</svg>
