<svg width="32" height="32" viewBox="0 0 32 32" fill="none" xmlns="http://www.w3.org/2000/svg">
<path d="M26 1H6.00002C4.6385 1.03869 3.34781 1.61539 2.41065 2.6038C1.47348 3.59221 0.966241 4.91175 1.00002 6.2734V21.2286C0.966241 22.5902 1.47348 23.9098 2.41065 24.8982C3.34781 25.8866 4.6385 26.4633 6.00002 26.502H16.98L19.24 29.7188C19.5082 30.1118 19.8679 30.4338 20.2881 30.657C20.7083 30.8801 21.1764 30.9979 21.6522 31C21.7372 31 21.822 30.996 21.908 30.9882C22.4338 30.9405 22.9374 30.7536 23.367 30.4467C23.7966 30.1399 24.1368 29.7241 24.3524 29.2422L25.6356 26.5022H26C27.3615 26.4635 28.6522 25.8868 29.5894 24.8984C30.5266 23.91 31.0338 22.5904 31 21.2288V6.2734C31.0338 4.91175 30.5266 3.59221 29.5894 2.6038C28.6522 1.61539 27.3615 1.03869 26 1ZM29 21.2286C29.0337 22.0598 28.7371 22.8706 28.175 23.4839C27.6129 24.0972 26.831 24.4632 26 24.502H25C24.81 24.5021 24.6239 24.5564 24.4636 24.6584C24.3033 24.7605 24.1754 24.9061 24.0948 25.0782L22.541 28.3946C22.473 28.5581 22.3622 28.7002 22.2203 28.8061C22.0784 28.9119 21.9105 28.9775 21.7344 28.996C21.5659 29.0129 21.3961 28.9819 21.2444 28.9066C21.0928 28.8314 20.9654 28.7148 20.877 28.5704L18.3184 24.9278C18.2263 24.7962 18.1039 24.6888 17.9614 24.6146C17.8189 24.5405 17.6606 24.5019 17.5 24.502H6.00002C5.16902 24.4632 4.38711 24.0972 3.82503 23.4839C3.26295 22.8706 2.96636 22.0598 3.00002 21.2286V6.2734C2.96636 5.44217 3.26295 4.63139 3.82503 4.01809C4.38711 3.40478 5.16902 3.03878 6.00002 3H26C26.831 3.03878 27.6129 3.40478 28.175 4.01809C28.7371 4.63139 29.0337 5.44217 29 6.2734V21.2286Z" fill="currentColor"/>
<path d="M9.29279 10.7071C9.48032 10.8945 9.73462 10.9998 9.99979 10.9998C10.265 10.9998 10.5193 10.8945 10.7068 10.7071L14.7068 6.70705C14.8023 6.6148 14.8785 6.50446 14.9309 6.38246C14.9833 6.26045 15.0109 6.12923 15.012 5.99645C15.0132 5.86367 14.9879 5.73199 14.9376 5.6091C14.8873 5.4862 14.8131 5.37455 14.7192 5.28066C14.6253 5.18676 14.5136 5.11251 14.3907 5.06223C14.2678 5.01195 14.1362 4.98665 14.0034 4.9878C13.8706 4.98895 13.7394 5.01654 13.6174 5.06895C13.4954 5.12136 13.385 5.19754 13.2928 5.29305L9.99979 8.58605L8.70679 7.29305C8.61454 7.19754 8.5042 7.12136 8.38219 7.06895C8.26019 7.01654 8.12897 6.98895 7.99619 6.9878C7.86341 6.98665 7.73173 7.01195 7.60883 7.06223C7.48594 7.11251 7.37428 7.18676 7.28039 7.28066C7.1865 7.37455 7.11225 7.4862 7.06197 7.6091C7.01168 7.73199 6.98638 7.86367 6.98754 7.99645C6.98869 8.12923 7.01628 8.26045 7.06869 8.38246C7.1211 8.50446 7.19728 8.6148 7.29279 8.70705L9.29279 10.7071Z" fill="currentColor"/>
<path d="M24 7H18C17.7348 7 17.4804 7.10536 17.2929 7.29289C17.1054 7.48043 17 7.73478 17 8C17 8.26522 17.1054 8.51957 17.2929 8.70711C17.4804 8.89464 17.7348 9 18 9H24C24.2652 9 24.5196 8.89464 24.7071 8.70711C24.8946 8.51957 25 8.26522 25 8C25 7.73478 24.8946 7.48043 24.7071 7.29289C24.5196 7.10536 24.2652 7 24 7Z" fill="currentColor"/>
<path d="M24 19H8C7.73478 19 7.48043 19.1054 7.29289 19.2929C7.10536 19.4804 7 19.7348 7 20C7 20.2652 7.10536 20.5196 7.29289 20.7071C7.48043 20.8946 7.73478 21 8 21H24C24.2652 21 24.5196 20.8946 24.7071 20.7071C24.8946 20.5196 25 20.2652 25 20C25 19.7348 24.8946 19.4804 24.7071 19.2929C24.5196 19.1054 24.2652 19 24 19Z" fill="currentColor"/>
<path d="M24 13H8C7.73478 13 7.48043 13.1054 7.29289 13.2929C7.10536 13.4804 7 13.7348 7 14C7 14.2652 7.10536 14.5196 7.29289 14.7071C7.48043 14.8946 7.73478 15 8 15H24C24.2652 15 24.5196 14.8946 24.7071 14.7071C24.8946 14.5196 25 14.2652 25 14C25 13.7348 24.8946 13.4804 24.7071 13.2929C24.5196 13.1054 24.2652 13 24 13Z" fill="currentColor"/>
</svg>
