<svg width="30" height="30" viewBox="0 0 30 30" fill="none" xmlns="http://www.w3.org/2000/svg">
<path fill-rule="evenodd" clip-rule="evenodd" d="M0 3.21429C0 1.43571 1.43571 0 3.21429 0H26.7857C28.5643 0 30 1.43571 30 3.21429V4.28571C30 6.06429 28.5643 7.5 26.7857 7.5H3.21429C1.43571 7.5 0 6.06429 0 4.28571V3.21429ZM3.21429 2.14286C2.625 2.14286 2.14286 2.625 2.14286 3.21429V4.28571C2.14286 4.875 2.625 5.35714 3.21429 5.35714H26.7857C27.375 5.35714 27.8571 4.875 27.8571 4.28571V3.21429C27.8571 2.625 27.375 2.14286 26.7857 2.14286H3.21429Z" fill="currentColor"/>
<path fill-rule="evenodd" clip-rule="evenodd" d="M0 12.857C0 11.0785 1.43571 9.64276 3.21429 9.64276H26.7857C28.5643 9.64276 30 11.0785 30 12.857V17.1428C30 18.9213 28.5643 20.357 26.7857 20.357H3.21429C1.43571 20.357 0 18.9213 0 17.1428V12.857ZM3.21429 11.7856C2.625 11.7856 2.14286 12.2678 2.14286 12.857V17.1428C2.14286 17.732 2.625 18.2142 3.21429 18.2142H26.7857C27.375 18.2142 27.8571 17.732 27.8571 17.1428V12.857C27.8571 12.2678 27.375 11.7856 26.7857 11.7856H3.21429Z" fill="currentColor"/>
<path fill-rule="evenodd" clip-rule="evenodd" d="M3.21429 22.5C1.43571 22.5 0 23.9357 0 25.7143V26.7857C0 28.5643 1.43571 30 3.21429 30H26.7857C28.5643 30 30 28.5643 30 26.7857V25.7143C30 23.9357 28.5643 22.5 26.7857 22.5H3.21429ZM2.14286 25.7143C2.14286 25.125 2.625 24.6429 3.21429 24.6429H26.7857C27.375 24.6429 27.8571 25.125 27.8571 25.7143V26.7857C27.8571 27.375 27.375 27.8571 26.7857 27.8571H3.21429C2.625 27.8571 2.14286 27.375 2.14286 26.7857V25.7143Z" fill="currentColor"/>
</svg>
