<svg width="24" height="24" viewBox="0 0 24 24" fill="none" xmlns="http://www.w3.org/2000/svg">
<g clip-path="url(#clip0_2001_91)">
<path d="M6 23.1429C6 22.6714 6.38571 22.2857 6.85714 22.2857H19.7143C21.1371 22.2857 22.2857 21.1371 22.2857 19.7143V4.28571C22.2857 2.86286 21.1371 1.71429 19.7143 1.71429H6.85714C6.38571 1.71429 6 1.32857 6 0.857143C6 0.385714 6.38571 0 6.85714 0H19.7143C22.08 0 24 1.92 24 4.28571V19.7143C24 22.08 22.08 24 19.7143 24H6.85714C6.38571 24 6 23.6143 6 23.1429Z" fill="black"/>
<path d="M15.9343 12.8573L12.2486 16.5345C11.9143 16.8688 11.9143 17.4173 12.2486 17.7516C12.5829 18.0858 13.1314 18.0858 13.4657 17.7516L18.6085 12.6087C18.9428 12.2744 18.9428 11.7259 18.6085 11.3916L13.4657 6.24876C13.1314 5.91448 12.5829 5.91448 12.2486 6.24876C11.9143 6.58305 11.9143 7.13155 12.2486 7.46584L15.9343 11.143H0.857143C0.385714 11.143 0 11.5287 0 12.0002C0 12.4716 0.385714 12.8573 0.857143 12.8573H15.9343Z" fill="black"/>
</g>
<defs>
<clipPath id="clip0_2001_91">
<rect width="24" height="24" fill="white"/>
</clipPath>
</defs>
</svg>
