<svg width="21" height="21" viewBox="0 0 21 21" fill="none" xmlns="http://www.w3.org/2000/svg">
<g clip-path="url(#clip0_22_112)">
<path fill-rule="evenodd" clip-rule="evenodd" d="M10.5399 0C7.75935 0 5.50531 2.25404 5.50531 5.03455C5.50531 7.81506 7.75935 10.0691 10.5399 10.0691C13.3204 10.0691 15.5744 7.81506 15.5744 5.03455C15.5744 2.25404 13.3204 0 10.5399 0ZM6.94375 5.03455C6.94375 3.04878 8.55409 1.43844 10.5399 1.43844C12.5256 1.43844 14.136 3.04878 14.136 5.03455C14.136 7.02032 12.5256 8.63065 10.5399 8.63065C8.55409 8.63065 6.94375 7.02032 6.94375 5.03455Z" fill="black" fill-opacity="0.5"/>
<path fill-rule="evenodd" clip-rule="evenodd" d="M4.50138 11.5076C3.552 11.5076 2.59831 11.983 2.13801 12.9115C1.76114 13.671 1.30012 14.8002 1.19943 15.9682C1.12535 16.8327 1.48495 17.7231 2.28041 18.2179C3.53977 18.9997 6.13472 20.1382 10.54 20.1382C14.9452 20.1382 17.5401 18.9997 18.7995 18.2179C19.5949 17.7231 19.9546 16.8327 19.8805 15.9682C19.7798 14.8002 19.3188 13.671 18.9419 12.9115C18.4816 11.983 17.5279 11.5076 16.5785 11.5076H4.50138ZM3.42685 13.5502C3.60665 13.187 4.00871 12.946 4.50138 12.946H16.5785C17.0712 12.946 17.4733 13.187 17.6531 13.5502C17.9983 14.2464 18.3694 15.1864 18.4471 16.0912C18.4816 16.4932 18.314 16.8255 18.0407 16.9959C17.0144 17.6332 14.6834 18.6998 10.54 18.6998C6.39652 18.6998 4.06554 17.6332 3.03921 16.9959C2.7659 16.8255 2.59832 16.4932 2.63285 16.0912C2.71052 15.1864 3.08162 14.2464 3.42685 13.5502Z" fill="black" fill-opacity="0.5"/>
</g>
<defs>
<clipPath id="clip0_22_112">
<rect width="20.4" height="20.4" fill="white"/>
</clipPath>
</defs>
</svg>
