<svg width="24" height="24" viewBox="0 0 24 24" fill="none" xmlns="http://www.w3.org/2000/svg">
<circle cx="12" cy="12" r="12" fill="#7294C7"/>
<path d="M17.8836 15.0691C17.8836 15.0192 17.8338 15.0192 17.8338 14.9694C17.6345 14.5709 17.1862 14.0728 16.5884 13.5248C16.2896 13.2758 16.1401 13.0765 16.0405 12.9769C15.8911 12.7776 15.8911 12.6282 15.9409 12.4289C15.9907 12.2795 16.1899 12.0304 16.5386 11.5821C16.7379 11.333 16.8375 11.1836 16.987 11.0341C17.7342 10.0379 18.0829 9.39029 17.9832 9.0914L17.9334 9.04159C17.8836 8.99178 17.8338 8.94197 17.7342 8.94197C17.6345 8.89215 17.4851 8.89215 17.3357 8.94197H15.4427C15.3929 8.94197 15.3929 8.94197 15.2933 8.94197C15.2435 8.94197 15.1937 8.94197 15.1937 8.94197H15.1439H15.094L15.0442 8.99178C14.9944 9.04159 14.9944 9.04159 14.9944 9.0914C14.7951 9.63936 14.5461 10.0877 14.297 10.5858C14.1476 10.8349 13.9981 11.084 13.8487 11.2832C13.6993 11.4825 13.5996 11.6319 13.5 11.7315C13.4004 11.8312 13.3007 11.881 13.2509 11.9806C13.2011 12.0304 13.1015 12.0802 13.1015 12.0304C13.0517 12.0304 13.0019 12.0304 13.0019 11.9806C12.952 11.9308 12.9022 11.881 12.8524 11.8312C12.8026 11.7813 12.8026 11.6817 12.7528 11.5821C12.7528 11.4825 12.7528 11.3828 12.7528 11.333C12.7528 11.2832 12.7528 11.1338 12.7528 11.0341C12.7528 10.8847 12.7528 10.7851 12.7528 10.7353C12.7528 10.5858 12.7528 10.3866 12.7528 10.1873C12.7528 9.98806 12.7528 9.83861 12.7528 9.73898C12.7528 9.63936 12.7528 9.48992 12.7528 9.39029C12.7528 9.24085 12.7528 9.14122 12.7528 9.0914C12.7528 9.04159 12.703 8.94197 12.703 8.89215C12.6532 8.84234 12.6033 8.79252 12.5535 8.74271C12.5037 8.6929 12.4041 8.6929 12.3543 8.64308C12.1052 8.59327 11.8063 8.54346 11.4576 8.54346C10.6606 8.54346 10.1127 8.59327 9.91341 8.6929C9.81378 8.74271 9.71415 8.79252 9.66434 8.89215C9.56471 8.99178 9.56471 9.04159 9.61452 9.04159C9.86359 9.09141 10.0629 9.19103 10.1625 9.34047L10.2123 9.44011C10.2621 9.48992 10.2621 9.58954 10.3119 9.73898C10.3617 9.88843 10.3617 10.0379 10.3617 10.2371C10.3617 10.536 10.3617 10.8349 10.3617 11.0341C10.3617 11.2832 10.3119 11.4327 10.3119 11.5821C10.3119 11.7315 10.2621 11.8312 10.2123 11.881C10.1625 11.9806 10.1625 12.0304 10.1127 12.0304C10.1127 12.0304 10.1127 12.0802 10.0628 12.0802C10.013 12.0802 9.96322 12.13 9.86359 12.13C9.81378 12.13 9.71415 12.0802 9.66434 12.0304C9.56471 11.9806 9.46509 11.881 9.41527 11.7814C9.31564 11.6817 9.21601 11.5323 9.11639 11.333C9.01676 11.1338 8.86731 10.9345 8.76768 10.6356L8.66807 10.4364C8.61825 10.3368 8.51862 10.1375 8.419 9.88843C8.31937 9.63936 8.21974 9.44011 8.12011 9.19104C8.0703 9.09141 8.02049 9.04159 7.97068 8.99178H7.92086C7.92086 8.99178 7.87104 8.94197 7.82123 8.94197C7.77141 8.94197 7.7216 8.89215 7.67179 8.89215H5.87849C5.67924 8.89215 5.57961 8.94196 5.5298 8.99178L5.47998 9.04159C5.47998 9.04159 5.47998 9.09141 5.47998 9.14122C5.47998 9.19103 5.47998 9.24085 5.5298 9.34047C5.77887 9.93824 6.07775 10.536 6.37663 11.1338C6.67551 11.6817 6.9744 12.1799 7.17365 12.5286C7.42272 12.8773 7.62197 13.226 7.87104 13.5248C8.12011 13.8237 8.26955 14.023 8.31936 14.1226C8.41899 14.2222 8.4688 14.272 8.51861 14.3218L8.66807 14.4713C8.76769 14.5709 8.91713 14.7204 9.11639 14.8698C9.31564 15.0192 9.56471 15.1687 9.81378 15.3181C10.0628 15.4676 10.3617 15.5672 10.6606 15.6668C11.0093 15.7665 11.3082 15.8163 11.6071 15.7665H12.3543C12.5037 15.7665 12.6034 15.7166 12.703 15.617L12.7528 15.5672C12.7528 15.5174 12.8026 15.5174 12.8026 15.4676C12.8026 15.4178 12.8026 15.3679 12.8026 15.2683C12.8026 15.0691 12.8026 14.9196 12.8524 14.7702C12.9022 14.6207 12.9022 14.5211 12.9521 14.4215C13.0019 14.3219 13.0517 14.272 13.1015 14.2222C13.1513 14.1724 13.2011 14.1226 13.2011 14.1226H13.2509C13.3505 14.0728 13.5 14.1226 13.5996 14.2222C13.7491 14.3219 13.8985 14.4713 13.9981 14.6207C14.0978 14.7702 14.2472 14.9196 14.4465 15.1189C14.6457 15.3181 14.7952 15.4676 14.8948 15.5174L15.0442 15.617C15.1438 15.6668 15.2435 15.7166 15.3929 15.7665C15.5424 15.8163 15.642 15.8163 15.7416 15.8163L17.4353 15.7665C17.5847 15.7665 17.7342 15.7166 17.8338 15.6668C17.9334 15.617 17.9832 15.5672 17.9832 15.4676C17.9832 15.4178 17.9832 15.3181 17.9832 15.2683C17.8836 15.1687 17.8836 15.1189 17.8836 15.0691Z" fill="white"/>
</svg>
